<!DOCTYPE svg PUBLIC "-//W3C//DTD SVG 1.1//EN" "http://www.w3.org/Graphics/SVG/1.1/DTD/svg11.dtd">
<!-- Uploaded to: SVG Repo, www.svgrepo.com, Transformed by: SVG Repo Mixer Tools -->
<svg width="210px" height="210px" viewBox="-2.4 -2.4 28.80 28.80" fill="none" xmlns="http://www.w3.org/2000/svg">
<g id="SVGRepo_bgCarrier" stroke-width="0">
<path transform="translate(-2.4, -2.4), scale(0.8999999999999999)" d="M16,28.079281811912853C18.931538882382654,28.334591986502666,21.842074220584458,30.447642699779365,24.559765004425607,29.319254332418513C27.31561595974994,28.17502181757254,28.99463259723211,25.184469809006963,29.854200862803445,22.32700153572457C30.6624495445695,19.640135282543717,29.442125892812257,16.900430690269545,29.134465282815682,14.111548989100559C28.813969570733274,11.206319662734412,29.71448350625372,7.967928069603181,28.00834714849305,5.5947079641413495C26.274774483969612,3.183324206323806,23.159301050279137,1.9662599810896326,20.202569338675858,1.687363232724394C17.470209749730046,1.429630614735745,15.049913661694454,3.0799447236526145,12.515634828463682,4.133341999668595C10.265888214380798,5.068470732910586,7.968171739650788,5.8322131748047745,6.199542699209214,7.507855407687108C4.302872379054998,9.304807067777102,2.8524330803424607,11.49945128295799,2.0998959175571414,14.001466748673801C1.2620973735737577,16.786956978076073,0.4860333545217972,19.887322930200803,1.678112131552144,22.540587034610695C2.8717378316957047,25.19729419634839,5.631157389524455,26.85678722069415,8.347626480993942,27.907325620926393C10.776500904556947,28.84664271432081,13.405641411190574,27.853336951267114,16,28.079281811912853" fill="#7ed0ec" strokewidth="0"/>
</g>
<g id="SVGRepo_tracerCarrier" stroke-linecap="round" stroke-linejoin="round" stroke="#a23939" stroke-width="0.43200000000000005"/>
<g id="SVGRepo_iconCarrier"> <path d="M12 2V18M12 22V18M12 18L15 21M12 18L9 21M15 3L12 6L9 3" stroke="#3e5293" stroke-width="1.7759999999999998" stroke-linecap="round"/> <path d="M3.33978 7.00042L6.80389 9.00042M6.80389 9.00042L17.1962 15.0004M6.80389 9.00042L5.70581 4.90234M6.80389 9.00042L2.70581 10.0985M17.1962 15.0004L20.6603 17.0004M17.1962 15.0004L21.2943 13.9023M17.1962 15.0004L18.2943 19.0985" stroke="#3e5293" stroke-width="1.7759999999999998" stroke-linecap="round"/> <path d="M20.66 7.00042L17.1959 9.00042M17.1959 9.00042L6.80364 15.0004M17.1959 9.00042L18.294 4.90234M17.1959 9.00042L21.294 10.0985M6.80364 15.0004L3.33954 17.0004M6.80364 15.0004L2.70557 13.9023M6.80364 15.0004L5.70557 19.0985" stroke="#3e5293" stroke-width="1.7759999999999998" stroke-linecap="round"/> </g>
</svg>